<?xml version="1.0" standalone="no"?>
<!DOCTYPE svg PUBLIC "-//W3C//DTD SVG 20010904//EN"
 "http://www.w3.org/TR/2001/REC-SVG-20010904/DTD/svg10.dtd">
<svg version="1.0" xmlns="http://www.w3.org/2000/svg"
 width="768.000000pt" height="768.000000pt" viewBox="0 0 768.000000 768.000000"
 preserveAspectRatio="xMidYMid meet">

<g transform="translate(0.000000,768.000000) scale(0.100000,-0.100000)"
fill="#000000" stroke="none">
<path d="M0 3840 l0 -3840 3840 0 3840 0 0 3840 0 3840 -3840 0 -3840 0 0
-3840z m5328 2313 c-15 -2 -42 -2 -60 0 -18 2 -6 4 27 4 33 0 48 -2 33 -4z
m-129 -17 c-2 -2 -15 -9 -29 -15 -24 -11 -24 -11 -6 3 16 13 49 24 35 12z
m217 -12 c18 -14 18 -14 -6 -3 -31 14 -36 19 -24 19 6 0 19 -7 30 -16z m-172
-10 c-6 -2 -8 -19 -6 -36 3 -21 1 -29 -7 -24 -12 8 -15 49 -4 59 3 4 11 7 17
6 8 0 8 -2 0 -5z m-121 -26 c-11 -13 -30 -41 -41 -63 -12 -22 -21 -36 -22 -32
-1 22 62 117 78 117 3 0 -4 -10 -15 -22z m342 2 c10 -11 16 -20 13 -20 -3 0
-13 9 -23 20 -10 11 -16 20 -13 20 3 0 13 -9 23 -20z m-460 -19 c3 -5 0 -13
-6 -17 -7 -4 -9 -3 -5 4 3 5 0 13 -6 15 -9 4 -10 6 -1 6 6 1 14 -3 18 -8z
m441 -49 c-3 -6 -14 -9 -24 -7 -9 2 -21 4 -27 5 -5 0 -2 5 7 11 11 6 15 16 11
26 -5 13 -2 12 16 -4 13 -12 20 -26 17 -31z m-59 20 c-10 -10 -14 -22 -10 -26
4 -4 -1 -4 -12 0 -16 6 -18 5 -7 -7 17 -18 15 -27 -9 -40 -17 -8 -20 -8 -14 1
5 9 1 10 -16 5 -18 -5 -12 4 25 39 50 46 73 62 43 28z m-192 -21 c-1 -7 -10
-18 -21 -23 -15 -9 -17 -8 -7 2 10 11 9 16 -5 26 -15 11 -14 12 9 11 16 -1 26
-7 24 -16z m39 -17 c4 -12 2 -15 -9 -10 -20 7 -19 -4 2 -19 11 -8 12 -14 5
-19 -17 -11 -36 32 -21 50 14 18 15 18 23 -2z m164 -34 c-22 -30 -35 -41 -22
-17 9 16 36 47 41 47 2 0 -6 -13 -19 -30z m119 -12 c-3 -7 -5 -2 -5 12 0 14 2
19 5 13 2 -7 2 -19 0 -25z m-460 -55 c-2 -16 -4 -5 -4 22 0 28 2 40 4 28 2
-13 2 -35 0 -50z m159 2 c-8 -8 -18 -15 -22 -15 -3 0 -1 7 6 15 7 8 17 15 22
15 5 0 3 -7 -6 -15z m24 -9 c0 -3 -4 -8 -10 -11 -5 -3 -10 -1 -10 4 0 6 5 11
10 11 6 0 10 -2 10 -4z m277 -18 c-3 -8 -6 -5 -6 6 -1 11 2 17 5 13 3 -3 4
-12 1 -19z m-1196 -22 c153 -29 252 -63 244 -83 -3 -8 -5 -19 -5 -24 0 -5 -10
-3 -23 5 -12 9 -79 27 -147 41 -105 22 -159 27 -339 31 -118 3 -218 7 -224 11
-6 3 -7 1 -3 -5 10 -16 -40 -8 -94 16 l-45 19 75 11 c124 18 414 7 561 -22z
m802 -86 l32 -35 -33 30 c-35 31 -62 74 -62 97 1 7 8 -3 16 -22 8 -19 29 -51
47 -70z m65 79 c-2 -3 4 -14 12 -25 14 -18 14 -18 -2 -5 -10 7 -16 17 -13 21
3 5 0 11 -5 13 -7 4 -6 5 1 4 6 -2 9 -5 7 -8z m165 -21 c38 -34 46 -48 25 -48
-17 0 -58 41 -58 57 0 8 -4 11 -10 8 -5 -3 -10 -1 -10 4 0 18 13 13 53 -21z
m-2507 -66 c25 -29 43 -56 40 -59 -4 -4 -30 15 -58 43 -78 74 -78 74 -101 73
-21 0 -21 -1 3 -17 40 -27 131 -115 141 -137 10 -20 10 -20 -5 -1 -9 11 -16
16 -16 11 0 -4 -16 8 -37 28 -20 21 -40 37 -45 37 -5 0 -6 5 -2 12 4 6 3 8 -4
4 -6 -3 -27 5 -48 19 -20 14 -44 25 -53 25 -13 0 -13 -2 -2 -9 9 -6 5 -8 -15
-8 -26 0 -27 0 -8 14 10 7 30 17 44 20 14 3 34 12 44 19 26 18 61 -3 122 -74z
m590 69 c24 -11 44 -24 44 -30 0 -5 -17 -20 -37 -32 -21 -13 -75 -58 -119
-102 -56 -54 -84 -75 -89 -66 -5 7 -1 17 8 24 10 7 17 16 17 20 0 5 -8 1 -18
-8 -10 -10 -22 -15 -25 -12 -4 3 -5 2 -2 -2 3 -3 -2 -14 -10 -23 -13 -14 -14
-22 -4 -44 10 -20 10 -29 1 -38 -17 -17 -40 -18 -38 -2 3 23 16 29 27 14 9
-12 10 -12 5 3 -3 10 -6 24 -6 30 0 8 -4 7 -12 -1 -17 -17 -28 -15 -28 6 0 18
32 56 41 48 2 -2 4 8 5 23 1 17 -4 28 -12 28 -7 0 -11 -4 -8 -9 8 -13 -24 -58
-41 -58 -9 0 -15 10 -15 25 0 14 5 25 11 25 5 0 7 -5 3 -12 -4 -7 -3 -8 5 -4
6 4 8 13 4 19 -4 7 -6 35 -5 62 2 31 -3 63 -13 85 -15 33 -16 33 -9 5 7 -29 8
-54 5 -102 0 -12 -8 -28 -16 -36 -11 -12 -12 -17 -2 -20 7 -3 5 -6 -5 -6 -15
-1 -18 8 -18 50 0 31 -4 48 -10 44 -5 -3 -10 -24 -10 -46 0 -37 -2 -39 -20
-29 -13 7 -20 21 -20 40 0 29 -46 147 -54 139 -3 -2 4 -31 15 -63 11 -32 18
-65 15 -72 -3 -8 -1 -14 4 -14 6 0 10 -5 10 -11 0 -5 -4 -7 -10 -4 -5 3 -10 1
-10 -6 0 -8 -4 -8 -15 1 -8 7 -15 19 -15 27 0 8 -9 28 -21 44 -11 16 -17 34
-13 40 4 8 3 9 -4 5 -7 -4 -12 -4 -12 1 -1 14 -40 56 -47 50 -3 -4 -1 -12 5
-19 13 -16 82 -138 82 -145 0 -3 -11 -2 -24 1 -15 4 -26 1 -28 -6 -3 -8 -7 -6
-11 4 -5 13 0 16 25 12 l31 -3 -22 23 c-11 12 -18 26 -14 29 3 4 2 7 -4 7 -5
0 -34 25 -64 55 l-55 54 304 1 c280 0 307 -1 348 -19z m269 -5 c43 -18 44 -24
6 -18 -16 2 -53 -3 -83 -12 -29 -8 -55 -15 -58 -14 -3 1 -15 -4 -28 -11 l-22
-12 20 33 c11 18 28 36 37 40 31 12 92 9 128 -6z m1550 4 c-3 -5 -12 -10 -18
-10 -7 0 -6 4 3 10 19 12 23 12 15 0z m182 -5 c0 -8 -4 -12 -9 -9 -5 3 -6 10
-3 15 9 13 12 11 12 -6z m47 -25 c-17 -28 -101 -96 -109 -89 -2 2 16 17 40 33
23 16 50 42 59 58 10 15 19 28 22 28 3 0 -3 -13 -12 -30z m-288 -12 c4 -7 2
-8 -5 -4 -6 4 -18 3 -25 -3 -9 -8 -13 -7 -13 2 0 16 34 20 43 5z m-567 -25
c11 -10 24 -34 27 -53 l7 -35 -21 25 c-15 18 -22 21 -22 10 -1 -13 -27 43 -29
63 -2 12 16 8 38 -10z m-1954 -11 c63 -22 113 -53 145 -89 14 -15 18 -22 9
-15 -9 6 -19 8 -23 4 -4 -4 -6 0 -4 8 2 8 -4 14 -12 15 -8 0 -38 12 -65 27
-28 14 -71 32 -95 38 -38 11 -42 14 -25 21 11 4 20 8 20 8 1 1 23 -7 50 -17z
m2605 -2 c0 -5 -5 -10 -11 -10 -5 0 -7 -4 -4 -10 9 -14 -8 -13 -23 2 -19 19
-14 28 13 28 14 0 25 -4 25 -10z m-572 -23 c6 -7 7 -18 3 -25 -8 -13 -16 -7
-35 26 -10 16 18 16 32 -1z m-2003 -42 c39 -18 79 -40 90 -49 11 -9 -11 0 -50
18 -38 19 -92 40 -120 47 -63 15 -87 34 -30 24 22 -4 72 -22 110 -40z m-351
20 c3 -9 0 -15 -8 -15 -7 0 -13 7 -13 15 0 8 4 15 8 15 4 0 9 -7 13 -15z
m2443 -21 c25 -14 41 -30 37 -36 -4 -6 -3 -8 3 -5 5 4 24 -4 41 -16 l31 -23
-44 -13 c-39 -11 -45 -11 -62 6 -17 17 -63 96 -63 108 0 10 14 5 57 -21z m560
20 c-3 -3 -12 -4 -19 -1 -8 3 -5 6 6 6 11 1 17 -2 13 -5z m-2690 -38 c4 -3
-12 -6 -34 -6 -22 0 -55 -3 -72 -6 -25 -5 -30 -4 -26 8 5 12 20 15 66 13 33
-2 63 -5 66 -9z m67 -31 c11 -8 16 -15 10 -15 -5 0 -18 7 -28 15 -11 8 -16 15
-10 15 5 0 18 -7 28 -15z m236 -5 c6 -11 8 -20 6 -20 -3 0 -10 9 -16 20 -6 11
-8 20 -6 20 3 0 10 -9 16 -20z m35 -1 c0 -8 5 -17 10 -21 6 -5 5 -8 -2 -8 -7
0 -17 9 -23 19 -13 26 -13 34 3 29 6 -3 12 -11 12 -19z m-71 -5 c3 -8 2 -12
-4 -9 -6 3 -10 10 -10 16 0 14 7 11 14 -7z m124 -7 c5 -24 -15 -21 -28 4 -10
18 -9 20 7 17 10 -2 19 -11 21 -21z m-385 6 c-23 -2 -64 -2 -90 0 -26 2 -7 3
42 3 50 0 71 -1 48 -3z m238 -20 l24 -26 -27 19 c-15 10 -28 22 -28 27 0 12 5
8 31 -20z m198 -27 c-12 -13 -19 -4 -25 30 l-5 27 20 -24 c12 -14 16 -28 10
-33z m-489 24 c17 -6 10 -7 -22 -3 -34 4 -48 2 -48 -7 0 -7 8 -9 20 -5 16 5
19 3 13 -11 -5 -13 -2 -15 18 -9 40 13 154 5 199 -13 25 -10 -19 -9 -130 2
-19 3 -29 2 -22 -1 10 -4 9 -8 -3 -17 -13 -10 3 -11 79 -8 69 3 96 1 96 -7 0
-7 5 -9 12 -5 6 4 8 3 4 -4 -3 -6 3 -12 16 -14 13 -2 -18 -2 -68 0 -61 3 -97
1 -110 -7 -18 -12 -18 -12 2 -8 37 8 188 -10 224 -27 21 -9 25 -13 10 -9 -40
10 -82 5 -98 -10 -13 -13 -9 -15 29 -13 51 3 94 -10 135 -41 l29 -23 -48 21
c-50 21 -98 22 -104 2 -3 -7 3 -9 16 -6 50 13 134 -38 168 -102 17 -32 30
-214 19 -260 -6 -23 -11 -25 -59 -25 -30 0 -76 -7 -103 -15 -57 -17 -78 -44
-88 -117 -4 -26 -14 -55 -22 -63 -9 -8 -12 -15 -8 -15 3 0 1 -7 -6 -15 -7 -8
-17 -12 -23 -8 -6 3 -7 1 -3 -6 14 -22 -70 -47 -256 -74 l-38 -6 0 70 0 69 38
0 c51 1 112 30 146 71 46 57 52 64 61 79 6 10 4 12 -8 7 -17 -6 -27 11 -27 47
0 57 -68 197 -115 236 -8 7 -12 17 -8 24 3 6 3 8 -2 4 -11 -10 -37 41 -28 55
3 5 1 7 -5 3 -19 -11 -35 61 -27 122 8 64 29 122 44 122 6 0 8 7 5 15 -5 12 2
15 32 14 22 -1 50 -5 64 -9z m73 3 c-7 -2 -21 -2 -30 0 -10 3 -4 5 12 5 17 0
24 -2 18 -5z m542 -21 c0 -18 -20 -15 -23 4 -3 10 1 15 10 12 7 -3 13 -10 13
-16z m1713 -12 c12 -11 27 -20 34 -20 7 0 8 -3 3 -9 -16 -14 -103 -22 -111
-10 -3 6 -12 8 -20 5 -26 -10 -14 9 16 27 17 10 35 15 42 11 7 -4 8 -3 4 4
-12 19 8 14 32 -8z m-1915 -9 c3 -12 0 -18 -9 -17 -19 3 -27 13 -19 25 10 17
22 13 28 -8z m45 1 c5 -17 -13 -15 -27 2 -10 12 -9 14 5 12 10 -2 20 -8 22
-14z m62 -18 c0 -8 -4 -12 -10 -9 -5 3 -10 13 -10 21 0 8 5 12 10 9 6 -3 10
-13 10 -21z m-25 -13 c3 -5 0 -13 -6 -17 -7 -4 -9 -3 -5 4 3 5 0 13 -6 15 -9
4 -10 6 -1 6 6 1 14 -3 18 -8z m1950 -50 c7 -12 -50 -31 -93 -31 -29 0 -34 3
-29 19 3 14 1 18 -9 14 -8 -3 -11 -10 -7 -17 3 -6 2 -7 -2 -3 -12 10 -15 38
-4 31 5 -3 9 0 9 5 0 6 3 10 8 9 4 0 14 1 22 5 36 14 47 13 72 -5 15 -10 30
-23 33 -27z m320 0 c-14 -14 -17 -14 -25 -1 -13 21 8 44 27 28 12 -10 12 -14
-2 -27z m-2232 9 c3 -11 3 -20 1 -20 -2 0 -8 9 -14 20 -6 11 -7 20 -2 20 6 0
12 -9 15 -20z m-13 -35 c0 -5 -5 -3 -10 5 -5 8 -10 20 -10 25 0 6 5 3 10 -5 5
-8 10 -19 10 -25z m-56 -11 c3 -8 2 -12 -4 -9 -6 3 -10 10 -10 16 0 14 7 11
14 -7z m203 -39 c0 -8 -6 -16 -14 -19 -11 -4 -11 -1 -3 14 13 24 17 25 17 5z
m-155 -20 c-8 -16 -9 -16 -15 -1 -4 10 -3 15 3 11 6 -3 10 -1 10 6 0 7 3 10 6
6 3 -3 2 -13 -4 -22z m2104 -82 c137 -185 214 -409 214 -626 0 -167 -58 -395
-113 -440 -12 -10 -15 -15 -7 -11 13 7 13 5 1 -9 -7 -9 -18 -14 -25 -10 -6 3
-8 3 -4 -2 9 -9 -52 -81 -64 -77 -5 1 -8 -3 -6 -10 1 -7 -12 -33 -30 -57 -18
-24 -32 -39 -32 -34 0 6 -22 24 -50 41 -46 28 -60 49 -44 64 3 4 30 -4 59 -18
79 -34 86 -9 10 36 -22 13 -42 26 -45 29 -3 4 -17 12 -32 20 -38 20 -46 44
-10 30 15 -6 29 -13 32 -17 3 -4 30 -16 60 -25 30 -10 61 -21 68 -24 6 -2 12
2 12 9 0 8 -25 26 -55 41 -33 16 -55 33 -55 43 0 14 7 16 48 9 73 -12 95 -11
99 2 3 8 -11 15 -37 19 -30 5 -38 9 -28 16 9 7 8 8 -6 4 -31 -11 -55 2 -48 26
4 19 10 20 66 16 34 -3 67 -3 74 -1 23 8 12 28 -16 29 -76 3 -118 15 -119 34
-1 16 5 20 30 21 18 0 55 7 82 14 l50 13 -82 1 c-79 1 -83 2 -83 24 1 21 1 22
15 3 8 -11 15 -14 15 -8 0 7 6 11 13 9 6 -1 11 4 9 11 -2 10 8 13 35 12 53 -3
63 -1 63 9 0 13 -59 22 -150 22 -44 0 -82 4 -85 10 -6 10 11 12 59 9 18 -1 26
2 22 9 -5 7 3 11 18 12 32 2 35 3 69 19 29 14 38 36 10 25 -30 -11 -195 -17
-189 -6 3 5 0 12 -6 15 -7 3 0 2 16 -1 22 -4 27 -3 21 7 -5 8 -3 11 6 8 8 -3
13 -10 12 -16 -2 -7 11 -11 32 -10 18 1 33 6 32 12 -1 5 3 11 8 12 29 4 74 27
69 35 -3 5 -13 5 -25 -1 -10 -6 -25 -10 -32 -9 -17 3 -48 -12 -42 -20 2 -4 -2
-8 -10 -8 -22 0 -18 15 5 22 11 3 20 11 20 16 0 6 8 8 18 5 12 -4 19 -1 19 7
0 15 -33 15 -63 -1 -11 -5 -38 -13 -61 -17 -36 -6 -43 -4 -43 9 0 15 14 20 47
19 7 -1 11 3 8 7 -2 4 7 12 20 18 19 9 27 8 40 -4 9 -9 15 -11 15 -4 0 6 14
16 30 21 17 6 30 15 30 20 0 12 -27 11 -35 -1 -3 -5 -15 -10 -27 -10 -14 0
-18 5 -14 16 5 12 1 14 -17 9 -20 -6 -21 -5 -4 8 9 8 17 19 17 26 0 6 7 14 15
17 17 7 21 44 5 44 -5 0 -10 -7 -10 -15 0 -8 -3 -15 -8 -15 -12 0 -45 -67 -38
-79 4 -7 1 -8 -8 -5 -9 3 -16 1 -16 -5 0 -6 -7 -8 -17 -4 -11 4 -14 3 -9 -5 5
-8 0 -12 -12 -12 -11 0 -22 7 -26 15 -3 9 0 15 10 15 8 0 13 -4 10 -9 -4 -5 5
-4 19 2 14 7 25 19 25 27 0 13 -1 13 -10 0 -5 -8 -10 -11 -10 -6 0 4 13 28 30
52 27 40 28 46 16 75 -10 23 -15 27 -19 15 -3 -8 -2 -18 3 -21 4 -3 7 -11 6
-19 -3 -19 -48 -66 -63 -66 -7 0 -13 -4 -13 -10 0 -5 -5 -10 -11 -10 -5 0 -7
5 -4 10 3 6 1 10 -5 10 -6 0 -9 4 -5 9 3 5 16 8 29 5 22 -4 24 -1 21 31 -1 19
1 35 5 35 4 0 5 11 2 25 -3 16 0 25 9 25 8 0 5 6 -7 15 -19 14 -19 14 4 30 12
9 20 21 17 26 -9 13 -21 11 -39 -7 -15 -14 -16 -14 -16 5 0 12 5 21 12 21 6 0
4 7 -5 18 -10 10 -14 22 -11 25 4 4 -4 24 -18 44 -13 21 -27 46 -31 57 -5 11
-13 16 -23 12 -20 -8 -44 16 -45 46 0 21 -1 21 -8 3 -7 -17 -9 -16 -15 10 -4
17 -12 35 -17 41 -12 15 -51 6 -42 -10 4 -6 -1 -5 -10 3 -20 16 -13 33 10 24
12 -5 14 -3 8 7 -5 9 -4 11 3 6 7 -4 12 -3 12 2 0 24 80 41 190 41 61 -1 114
2 117 5 18 18 45 -1 89 -61z m-2677 -100 c48 -54 52 -62 99 -223 6 -19 1 -34
-18 -61 -37 -53 -83 -81 -142 -87 l-51 -5 6 189 c4 104 7 225 7 269 l0 80 25
-53 c14 -30 47 -78 74 -109z m2781 117 c13 -8 12 -11 -5 -24 -22 -16 -41 -6
-32 18 7 18 16 20 37 6z m-3210 -19 c0 -5 -7 -14 -15 -21 -18 -15 -19 -44 -2
-58 9 -8 12 -2 12 25 0 20 6 38 13 40 8 3 12 -7 12 -31 0 -63 -71 -89 -109
-39 -21 26 -21 53 1 81 12 14 88 17 88 3z m1047 -43 c-3 -7 -5 -2 -5 12 0 14
2 19 5 13 2 -7 2 -19 0 -25z m1683 9 c0 -7 -4 -6 -10 3 -8 13 -10 12 -10 -4 0
-11 -3 -17 -6 -13 -4 3 -4 13 0 22 6 18 26 11 26 -8z m-63 -39 c-3 -8 -6 -5
-6 6 -1 11 2 17 5 13 3 -3 4 -12 1 -19z m-1613 -33 c5 -22 4 -26 -4 -15 -5 8
-10 24 -10 34 0 26 6 18 14 -19z m1546 21 c0 -2 -8 -10 -17 -17 -16 -13 -17
-12 -4 4 13 16 21 21 21 13z m15 -36 c3 -6 -1 -7 -9 -4 -18 7 -21 14 -7 14 6
0 13 -4 16 -10z m-1520 -70 c10 -11 16 -20 13 -20 -3 0 -13 9 -23 20 -10 11
-16 20 -13 20 3 0 13 -9 23 -20z m1750 10 c3 -5 1 -10 -4 -10 -6 0 -11 5 -11
10 0 6 2 10 4 10 3 0 8 -4 11 -10z m-932 -27 c-7 -2 -21 -2 -30 0 -10 3 -4 5
12 5 17 0 24 -2 18 -5z m937 3 c0 -2 -7 -7 -16 -10 -8 -3 -12 -2 -9 4 6 10 25
14 25 6z m28 -71 c-1 -22 -2 -24 -5 -7 -2 12 -9 22 -14 22 -5 0 -7 10 -5 23 3
12 5 27 6 32 3 19 18 -40 18 -70z m-967 45 c18 0 8 -19 -13 -26 -22 -8 -22 -8
7 -15 l30 -7 -31 -1 c-17 0 -47 -3 -65 -6 -26 -4 -30 -3 -14 4 11 5 14 10 7
10 -7 1 0 12 15 26 15 13 34 22 41 20 8 -3 18 -5 23 -5z m-176 -20 c-3 -5 -12
-10 -18 -10 -7 0 -6 4 3 10 19 12 23 12 15 0z m355 -10 c0 -5 -2 -10 -4 -10
-3 0 -8 5 -11 10 -3 6 -1 10 4 10 6 0 11 -4 11 -10z m557 -5 c0 -8 -4 -12 -9
-9 -5 3 -6 10 -3 15 9 13 12 11 12 -6z m-1662 -5 c-4 -6 -1 -19 6 -28 12 -16
12 -16 -5 0 -16 14 -15 38 0 38 3 0 2 -5 -1 -10z m726 -7 c10 -11 10 -14 2 -9
-7 4 -13 2 -13 -3 0 -6 5 -11 12 -11 28 0 -5 -13 -44 -17 l-43 -4 33 31 c38
35 36 35 53 13z m442 -29 c22 -20 54 -53 71 -73 l31 -36 -54 43 c-29 23 -58
42 -63 42 -6 0 -8 7 -4 15 3 8 -4 21 -17 30 -12 8 -18 15 -13 15 5 0 27 -16
49 -36z m672 26 c3 -5 1 -10 -4 -10 -6 0 -11 5 -11 10 0 6 2 10 4 10 3 0 8 -4
11 -10z m-28 -32 c-3 -8 -6 -5 -6 6 -1 11 2 17 5 13 3 -3 4 -12 1 -19z m-696
-36 c85 -41 170 -103 164 -120 -3 -7 -1 -11 4 -8 13 8 68 -55 86 -99 9 -22 23
-53 30 -70 57 -134 44 -341 -27 -436 -14 -19 -40 -62 -57 -97 -20 -39 -36 -60
-43 -56 -7 4 -8 3 -4 -4 11 -18 -41 -61 -111 -93 -53 -25 -75 -29 -145 -29
-98 0 -137 10 -238 58 l-75 36 80 13 c207 35 297 75 386 171 173 187 168 443
-11 617 -86 82 -154 114 -275 130 -110 15 -79 24 70 21 90 -2 107 -5 166 -34z
m742 24 c3 -8 -1 -20 -8 -26 -8 -7 -13 -16 -10 -20 3 -4 -2 -13 -10 -20 -11
-9 -15 -9 -15 -1 0 7 -5 9 -11 6 -6 -4 -5 2 2 13 7 12 17 18 22 15 4 -3 8 1 6
8 -5 37 13 55 24 25z m-1396 -2 c-3 -3 -12 -4 -19 -1 -8 3 -5 6 6 6 11 1 17
-2 13 -5z m1440 -14 c-4 -14 0 -20 11 -20 15 -1 15 -2 -1 -11 -9 -6 -15 -15
-11 -20 9 -14 -25 -49 -48 -49 -11 0 -16 -4 -13 -10 3 -5 -1 -10 -9 -10 -9 0
-16 -5 -16 -12 0 -6 -3 -9 -6 -6 -9 10 28 59 41 54 6 -2 18 0 26 6 11 8 10 9
-3 4 -21 -6 -22 -2 -7 25 5 11 15 17 20 13 6 -3 10 0 8 7 -3 24 1 49 7 49 4 0
4 -9 1 -20z m-2053 -12 c-3 -4 0 -8 5 -8 6 0 11 5 11 12 0 6 3 9 6 5 4 -3 -7
-20 -24 -36 -21 -21 -29 -38 -26 -53 l5 -23 -10 23 c-6 12 -16 22 -23 22 -10
0 -10 -2 -1 -8 17 -11 5 -82 -14 -82 -8 0 -12 4 -8 9 3 5 1 12 -5 16 -6 4 -10
-8 -10 -29 0 -19 -3 -43 -6 -53 -3 -11 -2 -14 3 -7 4 6 18 7 33 3 14 -4 18 -7
9 -8 -12 -1 -15 -8 -11 -26 2 -14 8 -22 13 -19 5 3 9 -3 9 -13 0 -11 4 -23 9
-28 13 -15 24 -68 11 -60 -6 3 -10 -3 -10 -14 0 -12 5 -21 11 -21 5 0 7 5 3
12 -5 7 -3 8 5 4 7 -5 10 -13 8 -20 -3 -6 1 -20 9 -31 8 -10 14 -26 14 -34 0
-9 -7 -3 -15 13 -9 16 -23 36 -33 45 -10 9 -17 26 -16 39 1 12 -3 22 -9 22 -5
0 -7 13 -3 30 3 19 2 29 -4 25 -6 -3 -11 4 -12 17 0 13 -2 30 -2 38 -1 9 -9
14 -20 12 -17 -3 -18 1 -13 35 4 26 3 33 -3 23 -6 -9 -10 -10 -10 -3 0 6 -3
20 -7 30 -6 16 -5 16 10 4 20 -16 23 0 5 28 -30 48 38 131 84 102 24 -15 33
-14 19 2 -8 10 -7 14 4 14 8 0 12 -4 9 -9z m49 -55 c-4 -11 -8 -13 -11 -5 -2
7 -8 10 -13 6 -5 -3 -9 -1 -9 5 0 11 21 20 32 14 4 -2 4 -11 1 -20z m84 -5
c-3 -8 -6 -5 -6 6 -1 11 2 17 5 13 3 -3 4 -12 1 -19z m1829 0 c4 -7 4 -10 -1
-6 -4 4 -14 0 -22 -10 -12 -16 -13 -16 -6 2 5 14 3 17 -7 11 -9 -5 -11 -4 -6
3 9 16 33 15 42 0z m-1939 -40 c-3 -7 -5 -2 -5 12 0 14 2 19 5 13 2 -7 2 -19
0 -25z m-60 -40 c-3 -8 -6 -5 -6 6 -1 11 2 17 5 13 3 -3 4 -12 1 -19z m50 0
c-3 -8 -6 -5 -6 6 -1 11 2 17 5 13 3 -3 4 -12 1 -19z m70 -10 c-3 -8 -6 -5 -6
6 -1 11 2 17 5 13 3 -3 4 -12 1 -19z m1930 15 c-4 -3 -1 -13 6 -21 8 -11 8
-14 0 -9 -6 4 -13 2 -15 -5 -3 -8 -9 -8 -22 -1 -13 7 -15 13 -7 17 6 4 11 2
11 -5 0 -13 14 -3 16 12 3 16 4 19 11 19 3 0 3 -3 0 -7z m-1910 -44 c2 -16 -1
-19 -9 -11 -5 5 -7 15 -4 21 10 15 12 14 13 -10z m-247 -8 c-5 -11 -15 -23
-21 -27 -6 -3 -3 5 6 20 20 30 30 35 15 7z m190 -1 c0 -5 -5 -10 -11 -10 -5 0
-7 5 -4 10 3 6 8 10 11 10 2 0 4 -4 4 -10z m-173 -22 c-3 -8 -6 -5 -6 6 -1 11
2 17 5 13 3 -3 4 -12 1 -19z m2156 -19 c-5 -5 -18 -7 -28 -3 -16 6 -15 8 6 20
25 13 40 1 22 -17z m-1923 11 c0 -5 -2 -10 -4 -10 -3 0 -8 5 -11 10 -3 6 -1
10 4 10 6 0 11 -4 11 -10z m-264 -32 c-14 -20 -18 -21 -15 -2 0 4 -5 11 -13
16 -10 8 -9 9 4 4 10 -3 20 -1 24 5 3 6 8 8 11 5 3 -2 -2 -15 -11 -28z m217
25 c-10 -3 -9 -8 2 -20 8 -8 14 -26 14 -41 -1 -21 -2 -23 -6 -7 -3 11 -12 29
-19 40 -19 26 -18 35 4 34 10 0 12 -3 5 -6z m44 -75 c-2 -13 -4 -3 -4 22 0 25
2 35 4 23 2 -13 2 -33 0 -45z m-197 49 c0 -1 4 -16 9 -33 7 -24 6 -31 -5 -31
-8 0 -14 6 -14 13 0 7 -9 18 -20 24 -18 9 -20 8 -20 -15 0 -21 -4 -26 -22 -23
-11 2 -22 11 -24 21 -2 12 2 17 11 13 7 -2 21 4 31 15 14 15 54 28 54 16z
m-120 -17 c18 -12 2 -12 -25 0 -13 6 -15 9 -5 9 8 0 22 -4 30 -9z m-26 -11
c29 -8 36 -13 25 -20 -12 -7 -11 -9 2 -9 8 0 26 -10 38 -21 16 -15 25 -18 30
-10 6 10 71 13 71 4 0 -19 -35 -123 -42 -123 -12 0 -10 28 4 32 8 3 8 9 0 24
-10 17 -11 17 -12 2 0 -10 -5 -18 -11 -18 -5 0 -9 10 -7 22 2 11 -3 23 -11 26
-10 3 -11 -2 -6 -19 4 -17 3 -20 -3 -10 -13 18 -46 6 -38 -14 3 -8 0 -15 -5
-15 -6 0 -9 -9 -6 -20 3 -11 2 -18 -2 -16 -4 3 -15 -4 -25 -16 -18 -20 -18
-20 -37 11 -19 32 -18 57 2 45 6 -3 5 3 -2 14 -8 12 -19 18 -28 14 -14 -6 -14
-7 2 -10 9 -2 14 -8 11 -13 -9 -16 -43 20 -37 39 3 13 2 14 -4 4 -10 -13 -47
-6 -38 7 8 13 -97 -7 -114 -22 -33 -28 -36 -26 -33 28 3 45 7 54 25 59 35 9
89 7 82 -3 -3 -5 0 -13 6 -17 8 -4 9 -3 5 4 -4 7 -3 12 3 12 5 0 13 -4 16 -10
3 -5 14 -10 23 -9 11 0 12 2 4 6 -6 2 -10 9 -6 14 3 5 -5 9 -18 10 -14 1 -8 4
17 10 36 9 51 7 108 -16 9 -4 17 -3 17 2 0 6 -15 15 -32 21 -44 14 -23 15 26
1z m251 -29 c-2 -17 2 -36 10 -44 18 -18 29 -76 15 -76 -6 0 -8 5 -5 10 3 6 2
10 -3 10 -12 0 -34 93 -26 113 10 26 13 20 9 -13z m80 -20 c3 -5 1 -10 -4 -10
-6 0 -11 5 -11 10 0 6 2 10 4 10 3 0 8 -4 11 -10z m-23 -44 c2 -19 1 -33 -3
-30 -4 2 -9 19 -11 38 -2 19 -1 33 3 30 4 -2 9 -19 11 -38z m-141 -23 c-12
-20 -14 -14 -5 12 4 9 9 14 11 11 3 -2 0 -13 -6 -23z m-275 -32 c36 -22 66
-74 58 -99 -5 -13 -4 -14 4 -4 12 17 18 -5 27 -100 11 -103 6 -111 -74 -141
-38 -14 -97 -29 -131 -33 l-62 -7 4 164 c2 103 9 172 16 186 28 51 104 67 158
34z m204 -11 c0 -5 -4 -10 -10 -10 -5 0 -10 5 -10 10 0 6 5 10 10 10 6 0 10
-4 10 -10z m120 -10 c0 -5 -5 -10 -11 -10 -5 0 -7 5 -4 10 3 6 8 10 11 10 2 0
4 -4 4 -10z m2080 0 c0 -5 -5 -10 -11 -10 -5 0 -7 5 -4 10 3 6 8 10 11 10 2 0
4 -4 4 -10z m-2221 -14 c10 -12 8 -13 -8 -9 -12 3 -18 9 -15 14 7 12 10 11 23
-5z m2341 -2 c0 -11 -8 -14 -32 -12 -46 4 -49 28 -4 28 26 0 36 -4 36 -16z
m-2287 -21 c-15 -5 -18 -33 -4 -33 5 0 12 6 15 13 3 6 5 3 3 -7 -3 -28 -24
-31 -37 -6 -10 18 -8 24 7 35 10 7 20 11 23 8 3 -3 -1 -8 -7 -10z m98 -19 c-5
-16 -10 -21 -10 -12 -1 18 10 51 15 45 2 -1 -1 -16 -5 -33z m2189 -33 c0 -15
-5 -18 -22 -14 -48 10 -54 15 -28 23 41 13 50 11 50 -9z m-2242 -13 c8 -8 15
-8 25 0 11 9 14 8 14 -4 0 -18 -97 -105 -109 -98 -4 3 -8 1 -8 -5 0 -6 -7 -7
-17 -4 -10 4 -14 2 -10 -4 7 -11 -37 -53 -54 -53 -5 0 -9 25 -9 55 0 51 12 72
23 43 3 -7 6 -3 6 10 1 16 -5 22 -19 22 -14 0 -20 7 -20 23 0 18 2 19 10 7 9
-13 11 -13 20 0 8 13 10 13 10 -1 0 -19 29 -79 38 -80 4 0 15 -2 25 -4 9 -2
15 1 11 6 -3 5 -10 7 -15 4 -5 -3 -6 1 -3 10 5 11 10 13 19 5 9 -8 14 -8 17 0
2 6 11 12 20 14 20 2 37 16 21 16 -6 0 -10 8 -9 18 2 9 -2 20 -8 24 -7 5 -7 8
0 8 5 0 15 -5 22 -12z m-111 -20 c-3 -8 -6 -5 -6 6 -1 11 2 17 5 13 3 -3 4
-12 1 -19z m76 -3 c0 -6 -7 -11 -16 -13 -12 -3 -15 1 -11 13 7 17 25 17 27 0z
m2247 -25 c14 -10 22 -22 18 -25 -8 -8 -68 23 -68 35 0 16 23 11 50 -10z
m-2313 -22 c-3 -8 -6 -5 -6 6 -1 11 2 17 5 13 3 -3 4 -12 1 -19z m-579 -25
c-4 -22 -22 -20 -26 1 -2 10 3 16 13 16 10 0 15 -7 13 -17z m2597 -4 c11 -16
1 -19 -13 -3 -7 8 -8 14 -3 14 5 0 13 -5 16 -11z m293 -37 l3 -22 -35 21 c-20
11 -36 22 -36 23 0 2 15 3 33 2 25 -1 33 -6 35 -24z m-90 -27 c-3 -3 -9 2 -12
12 -6 14 -5 15 5 6 7 -7 10 -15 7 -18z m-2193 -25 c-3 -5 -10 -10 -16 -10 -5
0 -9 5 -9 10 0 6 7 10 16 10 8 0 12 -4 9 -10z m-45 -71 c-30 -27 -64 -54 -75
-60 -14 -7 -13 -4 5 12 14 11 45 39 70 60 65 56 65 47 0 -12z m2263 27 c9 -7
17 -21 17 -30 0 -14 -4 -14 -30 6 -16 12 -30 25 -30 30 0 12 23 9 43 -6z
m-2148 -38 c-3 -13 -19 -36 -37 -52 -18 -16 -26 -25 -18 -21 8 4 4 -3 -10 -16
-23 -22 -39 -25 -32 -5 3 8 95 116 99 116 1 0 0 -10 -2 -22z m2135 -39 c0 -18
-18 -17 -35 1 -10 11 -14 20 -10 20 4 0 0 10 -11 22 -14 16 -10 15 19 -6 20
-16 37 -32 37 -37z m-2220 16 c9 6 9 3 1 -14 -7 -11 -17 -21 -24 -21 -8 0 -8
3 2 9 8 5 9 11 3 15 -6 3 -13 2 -17 -4 -3 -5 -10 -10 -16 -10 -5 0 -1 8 9 18
9 10 20 14 23 9 4 -5 12 -6 19 -2z m-220 -9 c-46 -17 -160 -28 -160 -16 0 6
21 11 48 12 74 2 81 3 88 11 4 4 19 7 33 6 24 0 23 -2 -9 -13z m85 -13 c-11
-7 -24 -13 -29 -12 -6 0 -5 3 3 6 11 5 11 7 0 15 -10 6 -7 7 10 3 17 -5 22 -4
16 5 -6 9 -4 11 5 5 10 -6 9 -11 -5 -22z m235 3 c0 -2 -8 -10 -17 -17 -16 -13
-17 -12 -4 4 13 16 21 21 21 13z m-285 -24 c-3 -3 -11 0 -18 7 -9 10 -8 11 6
5 10 -3 15 -9 12 -12z m140 6 c4 4 3 -3 -4 -15 -13 -26 -31 -39 -31 -23 0 6
-11 3 -24 -7 -13 -10 -21 -22 -18 -27 3 -5 0 -6 -7 -2 -6 4 -14 1 -17 -8 -3
-8 -39 -27 -80 -42 -41 -14 -74 -28 -74 -29 0 -2 11 -5 25 -7 13 -3 22 -1 19
3 -5 9 21 13 61 10 17 -2 17 0 5 8 -19 14 -4 14 20 1 17 -9 18 -8 13 7 -6 15
-4 16 9 5 13 -10 18 -10 24 -1 4 8 3 9 -4 5 -8 -4 -10 -2 -6 8 3 9 12 12 21 9
11 -4 14 -2 9 5 -7 12 32 38 42 28 3 -3 1 -6 -5 -6 -6 0 -13 -10 -17 -23 -3
-13 -22 -33 -43 -44 -58 -33 -152 -65 -169 -59 -10 4 -13 2 -8 -6 5 -8 2 -9
-9 -5 -10 3 -17 2 -17 -3 0 -6 -11 -10 -25 -10 -22 0 -25 5 -27 38 -2 59 -1
113 4 117 4 4 33 10 102 22 22 3 51 12 65 20 31 15 55 17 46 3 -4 -6 -11 -8
-16 -5 -5 4 -9 1 -9 -4 0 -6 -6 -11 -12 -11 -21 -1 -104 -42 -93 -46 6 -2 31
2 56 9 25 8 53 13 62 11 9 -1 15 2 11 7 -3 5 4 9 15 9 15 0 21 7 22 23 1 17 2
18 6 4 2 -9 9 -15 14 -11 5 3 6 11 3 17 -4 7 -4 9 1 5 12 -11 36 12 28 26 -4
7 -1 6 9 -1 8 -7 18 -9 23 -5z m2209 -19 c-3 -5 2 -9 12 -9 13 0 14 -3 4 -15
-12 -15 -35 -11 -25 5 3 4 -2 13 -10 20 -8 7 -12 16 -9 22 3 5 12 4 20 -3 7
-6 11 -15 8 -20z m131 -6 c50 -34 54 -39 38 -50 -9 -7 -20 -13 -23 -13 -14 0
-80 69 -80 84 0 22 2 21 65 -21z m-2511 18 c3 -5 -26 -16 -65 -25 -86 -19
-102 -20 -97 -3 3 6 36 17 74 23 38 6 72 12 76 13 4 0 9 -3 12 -8z m283 -26
c0 -8 -3 -13 -6 -10 -6 7 -71 -56 -71 -68 0 -5 8 -3 18 4 14 11 13 9 -2 -9
-13 -14 -26 -20 -38 -16 -10 3 -18 0 -18 -6 0 -6 -5 -8 -11 -5 -6 4 -13 -2
-16 -14 -3 -11 -14 -23 -25 -27 -11 -3 -17 -8 -14 -12 10 -9 -87 -60 -107 -56
-15 2 -16 0 -8 -10 6 -7 7 -16 3 -21 -4 -4 3 -2 16 4 12 7 28 9 34 5 7 -5 8
-3 3 6 -6 10 -3 12 13 8 12 -3 23 -1 26 6 3 6 4 2 3 -9 -2 -11 -9 -19 -16 -17
-7 1 -10 -2 -7 -7 4 -5 1 -13 -4 -16 -8 -5 -6 -13 6 -26 9 -11 14 -22 10 -26
-4 -4 -12 -1 -17 7 -9 13 -10 12 -5 -2 3 -10 -4 -43 -14 -74 -11 -32 -20 -72
-20 -91 0 -20 -5 -33 -12 -33 -9 0 -10 -3 -2 -8 7 -4 12 -51 13 -122 2 -113
-6 -152 -10 -52 -1 28 -6 57 -11 64 -10 16 -4 -184 6 -201 4 -6 4 -11 -1 -11
-4 0 -9 -11 -9 -25 -1 -15 2 -22 9 -18 6 4 8 -4 5 -20 -3 -17 -1 -24 5 -20 6
4 8 0 4 -10 -4 -10 -1 -17 6 -17 8 0 6 -4 -3 -10 -13 -8 -12 -10 4 -10 15 0
17 -3 9 -11 -17 -17 -46 -7 -60 20 -10 21 -9 27 5 38 15 12 15 12 1 7 -20 -6
-34 11 -18 22 8 5 9 3 4 -7 -5 -8 -5 -11 -1 -7 15 13 11 21 -11 24 -19 3 -23
-1 -23 -22 0 -14 8 -43 19 -64 18 -38 18 -39 0 -56 -23 -21 -21 -22 -53 43
-25 50 -42 70 -52 61 -4 -5 24 -62 48 -97 13 -19 15 -28 6 -38 -6 -8 -17 -12
-25 -9 -8 4 -17 -4 -23 -19 -5 -14 -11 -25 -14 -25 -2 0 -4 78 -5 174 0 168 0
174 19 169 11 -3 20 0 20 6 0 6 -9 11 -20 11 -19 0 -20 7 -20 263 0 144 4 267
8 273 4 6 27 14 52 17 67 10 86 14 110 27 11 6 25 8 30 5 6 -3 10 -1 10 4 0 6
3 10 8 10 24 -4 52 2 47 11 -3 6 -1 10 4 10 6 0 13 0 16 1 2 0 19 14 37 31 18
16 34 25 36 19 2 -6 8 -11 13 -11 6 0 7 5 3 11 -4 8 70 99 81 99 1 0 2 -7 2
-15z m2053 -20 c0 -14 -2 -25 -4 -25 -2 0 -6 11 -8 25 -3 14 -1 25 3 25 5 0 9
-11 9 -25z m-2153 0 c0 -8 -4 -12 -9 -9 -5 3 -6 10 -3 15 9 13 12 11 12 -6z
m2327 -57 c4 -3 5 -12 1 -18 -5 -8 -18 -2 -40 20 -24 24 -39 31 -52 25 -16 -6
-14 -9 13 -22 44 -21 57 -47 36 -66 -13 -12 -21 -13 -32 -6 -12 9 -12 10 3 5
26 -8 21 9 -7 22 -34 15 -43 60 -16 79 11 8 17 20 14 26 -4 7 11 -4 32 -23 21
-19 43 -38 48 -42z m-2204 48 c0 -2 -8 -10 -17 -17 -16 -13 -17 -12 -4 4 13
16 21 21 21 13z m1997 -36 c-1 -11 -5 -20 -9 -20 -10 0 -10 4 -2 24 8 22 13
20 11 -4z m-2156 -13 c-10 -9 -11 -8 -5 6 3 10 9 15 12 12 3 -3 0 -11 -7 -18z
m2234 -18 c10 -22 28 -47 39 -54 16 -12 17 -17 6 -30 -7 -8 -16 -15 -21 -15
-16 0 -49 64 -43 82 3 10 1 18 -4 18 -5 0 -12 9 -15 20 -9 36 17 21 38 -21z
m-2091 19 c-4 -5 -9 -7 -12 -4 -3 4 -17 -4 -31 -16 l-26 -23 23 26 c20 24 58
37 46 17z m1963 -30 c-3 -8 -6 -5 -6 6 -1 11 2 17 5 13 3 -3 4 -12 1 -19z
m-2698 -9 c42 -15 39 -30 -10 -53 -56 -27 -107 -100 -122 -175 -7 -33 -16 -63
-20 -67 -14 -14 -81 -13 -103 1 -12 8 -21 22 -20 32 2 10 -1 21 -7 24 -14 10
9 69 33 86 13 9 20 25 20 47 0 32 37 78 85 104 26 15 103 15 144 1z m2766 1
c-3 -5 -1 -15 5 -22 5 -7 21 -30 34 -50 l24 -37 -21 -14 c-20 -13 -22 -12 -35
22 -7 20 -15 43 -17 51 -2 8 -7 25 -11 38 -5 16 -2 22 10 22 10 0 14 -4 11
-10z m-2031 -8 c3 -5 -1 -9 -9 -9 -8 0 -12 4 -9 9 3 4 7 8 9 8 2 0 6 -4 9 -8z
m1596 -14 c-14 -6 -28 -10 -32 -10 -5 1 -7 -1 -7 -5 4 -26 -2 -34 -23 -28 -18
6 -20 4 -12 -5 12 -12 8 -50 -5 -50 -3 0 -6 -27 -6 -59 0 -33 3 -57 8 -54 4 2
7 0 7 -6 0 -6 16 -21 35 -34 19 -13 32 -26 29 -30 -3 -3 3 -3 15 0 15 4 21 1
21 -11 0 -9 5 -16 11 -16 6 0 8 -7 5 -16 -4 -10 -2 -13 6 -8 8 5 9 -1 4 -20
-4 -18 -3 -25 4 -21 6 4 10 -4 10 -18 0 -16 -16 -40 -48 -70 -53 -49 -90 -71
-139 -81 -27 -6 -34 -3 -56 26 -13 18 -37 69 -52 113 -16 44 -36 91 -45 105
-36 54 -33 70 33 154 34 43 78 91 97 105 33 24 34 24 15 2 -11 -13 -19 -25
-17 -27 2 -2 0 -19 -4 -37 -12 -57 -10 -114 4 -114 10 0 12 13 9 49 -3 26 -1
45 4 42 5 -3 8 5 6 18 -1 15 3 22 12 20 9 -2 11 3 7 14 -5 12 -2 15 10 10 13
-5 14 -3 7 6 -7 9 -4 18 8 30 9 9 20 14 23 11 3 -4 6 -1 6 5 0 6 10 13 23 15
41 8 52 6 27 -5z m26 -33 c-20 -19 -36 -36 -36 -37 0 -2 -4 -19 -10 -38 -8
-30 -8 -33 4 -17 12 16 15 11 22 -40 4 -32 7 -61 6 -65 -1 -5 3 -8 8 -8 6 0
10 -7 10 -16 0 -13 -5 -12 -29 5 -26 19 -30 30 -37 89 -6 52 -9 61 -15 42 -4
-14 -7 -18 -8 -8 -1 24 10 49 20 42 5 -3 6 1 3 9 -7 20 34 57 54 50 9 -4 13
-2 9 4 -4 6 -1 14 5 16 29 12 28 5 -6 -28z m364 14 c0 -5 -7 -9 -15 -9 -15 0
-20 12 -9 23 8 8 24 -1 24 -14z m-2000 7 c0 -2 -8 -10 -17 -17 -16 -13 -17
-12 -4 4 13 16 21 21 21 13z m2024 -73 c21 -36 24 -48 14 -55 -9 -5 -19 6 -34
40 -19 41 -22 62 -9 62 2 0 15 -21 29 -47z m-27 -54 c12 -14 12 -17 -3 -23
-24 -9 -32 2 -39 54 l-6 45 17 -30 c9 -16 23 -37 31 -46z m-73 30 c-2 -4 3
-23 11 -43 19 -44 19 -56 0 -56 -12 0 -29 48 -30 85 0 6 -4 13 -10 18 -6 4 -5
11 5 16 15 10 33 -5 24 -20z m850 17 c19 7 47 -31 48 -65 1 -38 -15 -58 -53
-66 -54 -12 -99 36 -85 90 7 27 56 58 70 45 5 -5 14 -6 20 -4z m-2958 -63
c-10 -10 -19 5 -10 18 6 11 8 11 12 0 2 -7 1 -15 -2 -18z m2069 -3 c20 -38 20
-80 0 -80 -11 0 -15 11 -15 39 0 22 -3 46 -6 55 -11 27 5 17 21 -14z m-328
-12 c-3 -8 -6 -5 -6 6 -1 11 2 17 5 13 3 -3 4 -12 1 -19z m286 -27 c-3 -10 0
-28 5 -38 8 -15 6 -22 -9 -31 -24 -15 -28 -15 -25 1 15 71 19 87 26 87 5 0 6
-9 3 -19z m-56 -68 c14 -18 1 -43 -21 -43 -6 0 -17 -14 -23 -31 -12 -31 -12
-31 7 -14 18 17 21 16 67 -18 26 -19 47 -40 45 -46 -1 -7 2 -10 7 -7 5 3 23
-15 39 -42 17 -26 49 -71 71 -101 22 -30 38 -58 35 -63 -3 -5 0 -7 8 -6 7 2
12 -5 12 -14 -1 -10 2 -16 6 -15 6 2 130 -157 130 -167 0 -2 -8 -2 -17 0 -26
7 -83 -32 -83 -56 0 -11 -7 -20 -16 -20 -10 0 -14 -7 -12 -22 2 -16 -1 -22
-12 -20 -8 2 -12 0 -8 -4 4 -4 3 -13 -3 -21 -16 -19 6 -17 25 3 9 8 16 12 16
7 0 -4 4 -2 9 5 11 19 159 38 174 23 8 -8 -1 -11 -34 -11 -55 0 -142 -25 -159
-45 -7 -8 -16 -13 -20 -10 -9 6 -7 -51 2 -60 3 -4 38 7 76 24 71 31 173 43
186 22 4 -5 -3 -7 -13 -4 -26 7 -121 -14 -170 -38 -22 -10 -45 -19 -51 -19 -5
0 -10 -7 -10 -15 0 -20 1 -20 80 15 77 34 89 35 114 17 15 -11 14 -13 -16 -15
-58 -5 -112 -23 -134 -47 -12 -13 -20 -26 -18 -28 2 -2 32 10 66 26 50 24 75
30 136 31 42 1 76 -3 78 -9 2 -6 -24 -11 -64 -12 -70 -1 -164 -30 -214 -65
-16 -11 -34 -16 -40 -12 -7 4 -10 4 -6 0 5 -7 -17 -41 -75 -116 -7 -9 -13 -22
-14 -30 -1 -8 -9 -40 -17 -70 -9 -31 -20 -86 -25 -124 -5 -37 -12 -70 -14 -72
-11 -11 -37 10 -37 30 0 32 -27 114 -50 151 -25 40 -98 108 -136 128 -26 12
-102 35 -175 51 -25 5 -27 12 -39 87 -17 110 -8 225 24 295 31 68 86 145 98
138 5 -3 7 -1 6 4 -4 11 107 114 115 106 3 -3 8 0 13 7 4 8 3 10 -4 5 -17 -10
-15 -1 8 41 22 42 27 150 11 213 -6 19 -12 56 -14 81 l-4 47 36 -15 c20 -8 42
-22 48 -30z m-1950 -415 c-2 -13 -4 -5 -4 17 -1 22 1 32 4 23 2 -10 2 -28 0
-40z m9 -68 c5 -13 6 -13 14 0 7 12 10 9 10 -12 0 -23 -15 -47 -25 -37 -1 2
-5 24 -9 49 -5 41 -3 41 10 0z m-40 -63 c1 -9 -3 -20 -8 -24 -6 -3 -8 -2 -5 4
4 6 0 19 -8 29 -13 18 -14 18 -9 -6 4 -22 3 -23 -5 -5 -5 11 -10 26 -10 34 -1
20 42 -10 45 -32z m2377 -54 c-7 -2 -19 -2 -25 0 -7 3 -2 5 12 5 14 0 19 -2
13 -5z m-79 -12 c3 -5 -1 -11 -9 -15 -9 -3 -15 0 -15 9 0 16 16 20 24 6z m106
-22 c11 -7 8 -9 -15 -7 -17 1 -36 -1 -43 -6 -7 -4 -20 -5 -30 -1 -12 5 -13 8
-4 14 19 12 75 12 92 0z m-106 -18 c6 -9 -16 -21 -40 -21 -20 0 -17 18 4 23
28 8 31 7 36 -2z m-2234 -35 c0 -2 -11 -11 -25 -20 -14 -9 -25 -13 -25 -8 0 5
10 14 23 20 27 13 27 13 27 8z m-160 -20 c0 -2 -8 -10 -17 -17 -16 -13 -17
-12 -4 4 13 16 21 21 21 13z m2556 -7 c5 -9 -7 -10 -44 -7 -28 3 -49 1 -46 -4
3 -4 -6 -8 -20 -8 -14 0 -26 4 -26 10 0 5 6 7 14 4 8 -3 17 -1 21 5 8 15 92
14 101 0z m-2466 -9 c-8 -5 -22 -9 -30 -9 -10 0 -8 3 5 9 27 12 43 12 25 0z
m75 -10 c-3 -5 -12 -10 -18 -10 -7 0 -6 4 3 10 19 12 23 12 15 0z m2240 -11
c-4 -5 -16 -9 -27 -9 -11 0 -27 -8 -34 -17 -7 -10 -15 -15 -19 -11 -11 11 5
29 39 43 32 14 51 11 41 -6z m-2393 -5 c-18 -8 -35 -21 -39 -30 -4 -12 -8 -13
-14 -3 -8 13 44 48 71 48 8 -1 0 -7 -18 -15z m-129 -39 c-10 -13 -22 -25 -27
-25 -5 0 1 11 14 25 30 32 36 32 13 0z m33 -14 c-15 -16 -28 -36 -30 -44 -1
-9 -9 -24 -18 -34 -8 -10 -18 -25 -21 -33 -4 -11 -6 -9 -6 6 -1 27 76 132 98
134 3 0 -8 -13 -23 -29z m134 25 c0 -9 -73 -46 -91 -46 -11 0 -18 -3 -16 -7 3
-5 -5 -16 -18 -25 -21 -16 -23 -16 -21 -1 3 21 35 43 62 43 13 0 26 5 29 11 4
6 17 14 29 19 26 11 26 11 26 6z m128 -8 c-3 -7 -11 -13 -18 -13 -7 0 -15 6
-17 13 -3 7 4 12 17 12 13 0 20 -5 18 -12z m2392 0 c0 -11 -12 -10 -30 2 -12
7 -10 9 8 7 12 0 22 -5 22 -9z m28 -23 c-3 -3 -9 2 -12 12 -6 14 -5 15 5 6 7
-7 10 -15 7 -18z m-2568 -25 c-14 -11 -32 -19 -40 -19 -8 0 1 8 20 19 45 25
51 25 20 0z m86 5 c-23 -17 -36 -19 -36 -6 0 11 18 19 40 20 11 0 10 -3 -4
-14z m70 -10 c-8 -8 -18 -15 -22 -15 -3 0 -1 7 6 15 7 8 17 15 22 15 5 0 3 -7
-6 -15z m-130 -14 c-4 -5 0 -12 6 -14 9 -4 7 -6 -3 -6 -9 -1 -22 -8 -29 -16
-7 -8 -16 -12 -21 -9 -16 9 -10 24 10 24 10 0 21 7 25 15 3 8 8 15 11 15 4 0
4 -4 1 -9z m-126 -48 c-25 -21 -53 -46 -62 -55 -21 -21 -28 -22 -28 -5 0 13
63 67 78 67 5 0 15 7 22 15 7 8 17 15 23 15 6 0 -9 -17 -33 -37z m211 19 c-7
-2 -18 1 -23 6 -8 8 -4 9 13 5 13 -4 18 -8 10 -11z m83 -1 c3 -4 -12 -15 -34
-24 -48 -19 -64 -3 -18 17 40 18 45 18 52 7z m2436 -1 c-18 -12 -142 -11 -134
1 3 5 38 9 77 9 51 0 68 -3 57 -10z m-2560 -8 c0 -10 -71 -45 -77 -38 -5 5 56
46 70 46 4 0 7 -4 7 -8z m2381 -10 c-13 -9 -33 -18 -44 -19 -25 -4 -33 -11
-24 -20 4 -3 24 -1 45 6 53 17 242 27 242 12 0 -9 -80 -18 -113 -12 -21 4
-133 -22 -151 -35 -27 -19 -9 -19 86 1 83 18 193 18 208 0 8 -9 -6 -12 -57
-12 -68 0 -155 -9 -183 -20 -8 -4 -22 -5 -30 -4 -11 1 -10 -2 3 -10 10 -6 28
-8 40 -4 23 8 248 23 242 16 -2 -2 6 -12 18 -23 l22 -19 -22 10 c-31 16 -181
13 -228 -4 -22 -8 -48 -15 -57 -15 -9 0 -19 -4 -22 -8 -2 -4 34 -2 82 4 115
17 195 17 211 2 11 -11 12 -10 6 2 -8 13 -7 13 10 0 10 -8 21 -14 24 -12 3 2
7 0 8 -5 2 -4 -52 -8 -120 -9 -134 -1 -193 -17 -250 -72 -34 -32 -67 -92 -67
-124 -1 -23 -1 -23 -16 -3 -16 20 -16 20 -9 -2 5 -17 2 -23 -10 -23 -13 0 -15
6 -10 30 18 81 89 178 121 166 14 -5 15 -4 4 9 -7 8 -9 15 -5 15 5 0 5 3 2 6
-4 4 -25 -12 -48 -35 -45 -48 -89 -132 -89 -173 0 -22 -6 -29 -27 -34 -16 -3
-36 -8 -45 -11 -22 -6 -23 6 -3 116 16 93 43 173 56 166 4 -3 11 0 15 6 4 8 3
9 -4 5 -28 -17 -8 17 36 61 29 29 68 56 102 70 65 26 84 28 51 5z m-2491 -2
c0 -5 -7 -10 -16 -10 -8 0 -12 -5 -9 -10 4 -6 3 -10 -2 -9 -19 3 -34 -2 -29
-10 7 -11 -84 -94 -93 -85 -7 7 125 134 139 134 6 0 10 -4 10 -10z m139 -14
c-18 -19 -79 -53 -84 -48 -6 6 63 52 79 52 5 0 7 -2 5 -4z m71 -14 c0 -4 -22
-17 -50 -30 -30 -14 -59 -37 -73 -57 -13 -19 -26 -32 -29 -30 -3 3 -8 -1 -11
-9 -3 -8 0 -13 6 -12 16 2 54 25 43 26 -5 0 -1 9 9 20 10 11 22 17 27 14 4 -3
7 0 6 7 -2 7 11 17 27 23 17 6 33 15 36 20 4 5 12 5 18 2 6 -4 11 -3 11 2 0
16 39 21 51 6 9 -11 8 -14 -2 -14 -28 0 -89 -21 -85 -29 3 -4 -5 -13 -17 -20
-25 -13 -52 -50 -43 -58 3 -3 17 9 32 26 15 19 33 30 41 27 8 -3 12 -2 9 2 -3
5 11 16 30 25 40 20 54 21 54 6 0 -5 -4 -8 -9 -5 -14 9 -95 -59 -116 -98 -19
-35 -19 -36 0 -50 22 -16 35 -12 18 5 -16 16 5 62 24 55 8 -3 11 -1 8 4 -3 5
7 12 22 16 15 3 33 7 40 9 7 2 15 0 18 -5 4 -6 11 -10 16 -10 6 0 7 5 3 12 -4
6 -3 8 4 4 5 -3 8 -19 6 -35 -3 -19 1 -37 13 -50 16 -20 18 -20 37 -3 21 17
21 17 2 -5 -12 -15 -23 -20 -30 -14 -6 5 -15 10 -21 10 -5 1 -11 6 -11 11 -1
6 -3 13 -4 18 -3 10 -7 25 -8 37 -1 6 -18 10 -36 11 -19 0 -33 -2 -31 -6 2 -3
-3 -26 -11 -50 -8 -24 -11 -46 -7 -49 12 -9 15 -41 3 -41 -5 0 -10 -9 -10 -20
0 -15 7 -20 25 -20 14 0 25 -5 25 -11 0 -6 -9 -9 -20 -6 -11 3 -20 1 -20 -4 0
-5 5 -9 11 -9 6 0 8 -7 5 -16 -5 -13 -2 -15 16 -10 13 3 29 6 36 6 18 0 15 18
-5 23 -14 4 -12 5 5 6 12 0 22 -5 22 -11 0 -8 7 -5 15 6 8 11 15 14 15 7 0 -7
4 -10 9 -7 5 3 9 23 9 43 0 21 5 39 11 41 6 2 9 9 5 15 -3 7 0 5 8 -4 7 -9 20
-14 28 -11 11 4 10 0 -3 -13 -13 -12 -17 -26 -13 -44 5 -22 4 -23 -4 -8 -6 9
-8 27 -5 40 6 21 5 21 -9 4 -8 -11 -12 -25 -9 -33 2 -7 -2 -23 -11 -36 -11
-15 -16 -17 -16 -8 0 13 -2 13 -10 0 -12 -20 29 -37 43 -18 6 10 7 8 4 -4 -7
-20 16 -31 32 -15 8 8 11 8 11 -1 0 -7 -6 -12 -12 -12 -8 -1 -6 -6 5 -14 11
-8 14 -17 8 -20 -5 -4 -15 2 -20 12 -12 23 -65 47 -85 39 -18 -7 -17 -45 2
-52 7 -2 10 0 7 5 -3 6 -2 10 3 10 5 0 12 -13 16 -30 3 -20 12 -30 23 -30 15
0 16 -2 3 -10 -22 -14 -8 -20 54 -24 31 -2 60 -6 64 -10 4 -4 -90 -6 -208 -4
-205 3 -217 4 -265 28 -137 67 -173 113 -123 160 12 11 29 20 37 19 11 0 12
-2 4 -6 -16 -6 -17 -69 -2 -78 6 -4 8 -13 6 -20 -4 -9 3 -10 26 -6 56 12 70
75 25 114 -34 29 -76 22 -114 -19 -19 -20 -31 -40 -28 -46 4 -7 2 -8 -5 -4
-11 7 -11 34 3 256 1 8 13 24 28 35 14 11 49 39 76 63 28 23 53 39 56 34 3 -5
-12 -21 -32 -37 -41 -31 -122 -126 -122 -144 0 -20 15 -11 38 24 33 48 118
125 138 125 10 0 -2 -19 -37 -55 -34 -35 -55 -51 -60 -43 -4 6 -7 1 -7 -13 0
-13 -3 -35 -6 -49 l-7 -25 18 25 c40 55 76 90 86 83 5 -3 7 -1 3 5 -11 18 92
94 153 113 14 4 27 8 29 8 1 1 2 -2 2 -7z m127 -79 c2 -6 -9 -13 -24 -16 -15
-3 -39 -9 -53 -13 -22 -7 -23 -6 -12 9 8 9 20 13 29 10 11 -4 14 -2 9 5 -5 8
-2 10 8 6 9 -4 16 -1 16 6 0 14 22 8 27 -7z m1544 -34 c95 -33 179 -95 163
-120 -4 -8 -3 -9 4 -5 13 8 43 -48 62 -117 14 -53 13 -55 -20 -59 -21 -3 -25
3 -35 52 -6 30 -17 65 -24 78 -6 12 -9 28 -5 34 4 6 3 8 -3 5 -6 -4 -25 11
-42 33 -38 47 -93 78 -155 86 -25 4 -47 13 -50 20 -8 21 33 18 105 -7z m-851
-14 c0 -18 -5 -25 -19 -25 -11 0 -23 5 -26 10 -11 18 3 40 25 40 15 0 20 -7
20 -25z m-615 -5 c3 -5 -1 -10 -10 -10 -9 0 -13 5 -10 10 3 6 8 10 10 10 2 0
7 -4 10 -10z m1482 -39 c47 -22 108 -97 122 -151 22 -83 22 -90 6 -90 -26 0
-96 40 -121 68 -21 25 -104 172 -104 186 0 13 57 5 97 -13z m-1497 -6 c0 -2
-9 -3 -19 -2 -11 0 -18 5 -15 9 4 6 34 0 34 -7z m2429 0 c7 -7 -24 -10 -88
-11 -104 0 -160 -15 -234 -61 -21 -13 -43 -21 -49 -17 -6 4 -8 3 -5 -3 4 -5
-5 -25 -18 -43 -14 -19 -25 -40 -25 -47 0 -15 -16 -17 -25 -3 -8 12 21 80 34
80 6 0 10 3 10 8 -3 19 2 33 11 27 6 -3 10 -1 10 6 0 8 5 7 18 -2 15 -13 16
-12 3 4 -8 9 -12 18 -10 20 69 39 103 49 119 34 10 -9 11 -9 5 2 -6 11 -3 13
13 9 14 -4 20 -2 16 4 -9 14 202 6 215 -7z m-2545 -37 c-4 -14 -2 -18 5 -14 7
4 11 -1 11 -13 0 -18 -3 -19 -25 -9 -26 12 -31 23 -15 33 6 3 10 12 10 18 0 7
-4 6 -10 -3 -5 -8 -10 -10 -10 -4 0 16 10 23 26 17 9 -3 12 -13 8 -25z m206
10 c16 5 15 4 -14 -18 -13 -10 -17 -10 -12 -2 4 6 2 12 -3 12 -6 0 -11 -5 -11
-12 0 -6 -3 -8 -7 -5 -3 4 -12 2 -19 -4 -9 -7 -12 -6 -10 8 2 11 10 17 21 15
11 -2 14 1 10 8 -5 9 -2 9 11 2 11 -5 26 -7 34 -4z m2381 -31 c10 -18 8 -18
-53 -12 -38 4 -97 2 -144 -6 -43 -6 -87 -12 -97 -11 -11 0 -17 -5 -15 -16 2
-11 -3 -16 -14 -14 -10 2 -18 -3 -18 -9 0 -7 -3 -9 -6 -6 -4 4 -1 13 5 21 9
11 9 16 0 22 -8 5 -9 3 -4 -6 6 -10 4 -12 -9 -7 -11 4 -15 3 -10 -4 7 -12 -15
-59 -28 -59 -5 0 -6 5 -2 12 4 7 3 8 -5 4 -9 -6 -9 -11 -1 -22 10 -11 18 -9
48 11 20 14 43 25 51 25 7 0 19 7 25 15 6 8 38 18 71 24 70 10 214 9 233 -2
27 -18 9 -23 -50 -16 -96 12 -232 -15 -275 -54 -13 -11 -26 -18 -29 -14 -4 3
-15 2 -26 -4 -11 -6 -27 -7 -36 -3 -25 11 -36 11 -44 -1 -5 -6 -8 -6 -8 2 0
19 70 97 104 115 17 9 40 15 51 13 11 -3 14 -2 6 1 -32 15 19 23 141 22 117
-1 130 -3 139 -21z m-2241 -18 c0 -6 -6 -9 -13 -6 -8 3 -20 1 -28 -5 -11 -8
-10 -9 4 -4 11 3 16 2 12 -4 -9 -14 -42 -12 -51 3 -4 6 -4 9 1 5 4 -4 14 -1
22 7 17 18 53 20 53 4z m-351 -18 c7 -5 12 -13 10 -18 -2 -6 -13 -2 -23 8 -20
19 -12 26 13 10z m386 -11 c-10 -11 -21 -17 -26 -15 -4 3 -15 -3 -25 -12 -13
-13 -16 -14 -13 -3 3 8 21 23 40 32 43 23 46 22 24 -2z m-395 -14 c0 -2 -9 -6
-20 -9 -11 -3 -18 -1 -14 4 5 9 34 13 34 5z m435 -18 c-11 -6 -32 -21 -46 -35
-24 -22 -26 -22 -24 -3 1 11 5 23 10 27 4 5 5 2 1 -4 -11 -19 2 -16 31 7 14
11 31 20 37 20 6 0 2 -6 -9 -12z m2216 -9 c9 -5 -25 -9 -84 -9 -87 0 -162 -10
-207 -28 -8 -3 -23 -6 -33 -7 -33 -4 3 24 52 40 51 16 249 19 272 4z m-2171
-24 c-7 -9 -19 -14 -25 -11 -7 2 -18 -1 -24 -7 -8 -8 -11 -8 -11 1 0 12 13 16
39 13 7 -2 10 2 6 8 -3 6 1 11 11 11 14 0 14 -3 4 -15z m2008 -12 c-49 -7 -31
-25 20 -19 26 2 58 6 72 7 16 1 8 5 -20 9 -42 7 -40 7 22 7 37 0 65 -3 63 -7
-3 -4 6 -10 20 -12 20 -4 23 -3 14 8 -18 21 -4 16 16 -6 17 -19 16 -19 -71
-15 -75 4 -83 3 -49 -6 22 -5 65 -14 95 -18 43 -7 47 -9 20 -10 -19 0 -67 6
-105 14 -39 8 -85 15 -103 15 -18 0 -40 6 -48 14 -12 13 -11 15 8 19 13 2 34
4 48 4 23 0 23 0 -2 -4z m-1988 -17 c0 -3 -4 -8 -10 -11 -5 -3 -10 -1 -10 4 0
6 5 11 10 11 6 0 10 -2 10 -4z m-28 -52 c-9 -12 -21 -20 -26 -17 -4 3 -2 9 5
14 8 5 10 9 6 9 -15 0 2 17 17 17 12 0 12 -4 -2 -23z m47 -73 c1 -61 -5 -48
-12 24 -3 36 -2 52 3 40 5 -11 9 -40 9 -64z m1321 17 c0 -10 3 -9 9 1 16 25
20 -6 9 -73 -11 -69 -6 -121 24 -253 14 -61 3 -83 -43 -83 -48 0 -56 34 -28
116 26 78 32 241 10 282 -10 18 -9 22 4 22 8 0 15 -6 15 -12z m-1560 -68 c18
-12 2 -12 -25 0 -13 6 -15 9 -5 9 8 0 22 -4 30 -9z m1845 -10 c3 -5 1 -10 -4
-10 -6 0 -11 5 -11 10 0 6 2 10 4 10 3 0 8 -4 11 -10z m-92 -106 c-8 -21 -43
-18 -43 5 0 11 6 21 13 24 17 6 37 -12 30 -29z m-1516 -26 c-3 -8 -6 -5 -6 6
-1 11 2 17 5 13 3 -3 4 -12 1 -19z m1970 0 c-3 -8 -6 -5 -6 6 -1 11 2 17 5 13
3 -3 4 -12 1 -19z m-2019 -126 c12 9 11 5 -3 -12 -11 -14 -21 -27 -22 -29 -2
-2 -2 13 -2 35 1 24 3 30 6 16 4 -20 7 -21 21 -10z"/>
<path d="M5416 6032 c-3 -5 1 -9 9 -9 8 0 15 4 15 9 0 4 -4 8 -9 8 -6 0 -12
-4 -15 -8z"/>
<path d="M5340 5995 c0 -8 4 -15 10 -15 5 0 7 7 4 15 -4 8 -8 15 -10 15 -2 0
-4 -7 -4 -15z"/>
<path d="M2720 5726 c0 -2 8 -10 18 -17 15 -13 16 -12 3 4 -13 16 -21 21 -21
13z"/>
<path d="M4800 5633 c0 -25 15 -38 25 -22 4 6 0 18 -9 27 -15 15 -16 15 -16
-5z"/>
<path d="M2506 5442 c-14 -41 11 -56 33 -19 7 12 10 19 6 15 -5 -4 -14 0 -20
9 -11 15 -13 15 -19 -5z"/>
<path d="M2777 5353 c-10 -9 -9 -23 2 -23 5 0 11 7 15 15 5 15 -5 20 -17 8z"/>
<path d="M2960 5256 c0 -9 7 -12 20 -9 11 3 20 9 20 14 0 5 -9 9 -20 9 -11 0
-20 -6 -20 -14z"/>
<path d="M3000 5171 c0 -6 5 -13 10 -16 6 -3 10 1 10 9 0 9 -4 16 -10 16 -5 0
-10 -4 -10 -9z"/>
<path d="M2896 5154 c-11 -27 -7 -42 13 -47 12 -3 22 1 25 10 10 24 7 32 -13
42 -15 8 -20 7 -25 -5z"/>
<path d="M4920 5216 c0 -9 5 -16 10 -16 6 0 10 4 10 9 0 6 -4 13 -10 16 -5 3
-10 -1 -10 -9z"/>
<path d="M5362 4973 c4 -20 22 -21 26 -2 2 9 -4 16 -13 16 -9 0 -15 -7 -13
-14z"/>
<path d="M5107 4931 c3 -12 11 -17 19 -14 21 8 17 33 -5 33 -14 0 -18 -5 -14
-19z"/>
<path d="M5070 4859 c0 -5 5 -7 10 -4 6 3 10 8 10 11 0 2 -4 4 -10 4 -5 0 -10
-5 -10 -11z"/>
<path d="M5165 4770 c-3 -5 -1 -10 4 -10 6 0 11 5 11 10 0 6 -2 10 -4 10 -3 0
-8 -4 -11 -10z"/>
<path d="M5275 4609 c-10 -15 1 -23 20 -15 9 3 13 10 10 16 -8 13 -22 13 -30
-1z"/>
<path d="M3997 5056 c-4 -10 1 -12 14 -9 23 6 24 9 5 16 -8 3 -17 0 -19 -7z"/>
<path d="M3800 5016 c0 -2 8 -10 18 -17 15 -13 16 -12 3 4 -13 16 -21 21 -21
13z"/>
<path d="M4995 4900 c3 -5 8 -10 11 -10 2 0 4 5 4 10 0 6 -5 10 -11 10 -5 0
-7 -4 -4 -10z"/>
<path d="M2900 4929 c0 -5 5 -7 10 -4 6 3 10 8 10 11 0 2 -4 4 -10 4 -5 0 -10
-5 -10 -11z"/>
<path d="M2857 4900 c-3 -11 -2 -22 2 -24 4 -3 8 6 9 20 2 29 -4 31 -11 4z"/>
<path d="M2910 4910 c-13 -8 -12 -10 3 -10 9 0 17 5 17 10 0 12 -1 12 -20 0z"/>
<path d="M2892 4850 c0 -14 2 -19 5 -12 2 6 2 18 0 25 -3 6 -5 1 -5 -13z"/>
<path d="M2628 4653 c7 -3 16 -2 19 1 4 3 -2 6 -13 5 -11 0 -14 -3 -6 -6z"/>
<path d="M2690 4556 c0 -2 8 -10 18 -17 15 -13 16 -12 3 4 -13 16 -21 21 -21
13z"/>
<path d="M2690 4501 c0 -8 19 -37 21 -31 0 3 2 12 4 21 1 9 -4 16 -11 16 -8 0
-14 -3 -14 -6z"/>
<path d="M2897 4373 c3 -7 6 -13 8 -13 1 0 7 6 13 13 8 10 6 13 -7 13 -11 0
-17 -6 -14 -13z"/>
<path d="M2747 4289 c3 -11 6 -18 7 -17 1 2 7 10 13 18 10 13 8 16 -6 17 -14
1 -17 -4 -14 -18z"/>
<path d="M2655 3860 c-3 -6 1 -7 9 -4 18 7 21 14 7 14 -6 0 -13 -4 -16 -10z"/>
<path d="M2558 3503 c-13 -16 -13 -20 3 -35 18 -17 19 -16 30 3 8 17 8 25 -3
35 -12 13 -16 12 -30 -3z"/>
<path d="M2524 3413 c4 -6 -3 -14 -14 -18 -11 -3 -24 -15 -30 -25 -13 -24 11
-45 37 -32 10 5 25 7 33 5 9 -3 8 0 -3 7 -13 8 -15 15 -8 24 8 9 6 18 -5 32
-8 10 -13 14 -10 7z"/>
<path d="M2510 3320 c-18 -12 -2 -12 25 0 13 6 15 9 5 9 -8 0 -22 -4 -30 -9z"/>
<path d="M2433 3195 c-3 -9 -3 -18 -1 -21 3 -3 8 4 11 16 6 23 -1 27 -10 5z"/>
<path d="M2520 3186 c7 -7 14 -6 21 1 9 9 7 12 -9 10 -14 -1 -18 -5 -12 -11z"/>
<path d="M2528 3163 c7 -3 16 -2 19 1 4 3 -2 6 -13 5 -11 0 -14 -3 -6 -6z"/>
<path d="M2004 3859 c-14 -16 -16 -23 -6 -26 6 -3 9 -9 6 -15 -4 -6 2 -5 15 1
13 7 21 21 21 36 0 31 -11 32 -36 4z m26 -14 c0 -8 -2 -15 -4 -15 -2 0 -6 7
-10 15 -3 8 -1 15 4 15 6 0 10 -7 10 -15z"/>
<path d="M4305 3810 c-3 -5 -1 -10 4 -10 6 0 11 5 11 10 0 6 -2 10 -4 10 -3 0
-8 -4 -11 -10z"/>
<path d="M4375 3765 c2 -22 2 -32 -1 -22 -10 32 -19 17 -19 -33 0 -28 3 -50 7
-50 5 0 8 9 8 20 0 11 5 20 10 20 12 0 12 58 0 85 -7 15 -8 9 -5 -20z"/>
<path d="M4400 3660 c0 -5 5 -10 11 -10 8 0 8 -4 1 -12 -8 -10 -4 -13 13 -14
l23 -2 -21 24 c-23 27 -27 29 -27 14z"/>
<path d="M5590 3776 c0 -8 4 -17 9 -20 5 -4 7 3 4 14 -6 23 -13 26 -13 6z"/>
<path d="M5640 3780 c0 -5 -8 -7 -17 -4 -14 5 -15 4 -4 -4 7 -5 10 -15 7 -21
-4 -6 -2 -11 3 -11 21 0 26 5 23 24 -3 12 0 16 9 11 8 -5 10 -4 5 3 -9 14 -26
16 -26 2z"/>
<path d="M4637 3303 c-4 -3 -7 -11 -7 -17 0 -6 5 -5 12 2 6 6 9 14 7 17 -3 3
-9 2 -12 -2z"/>
<path d="M4660 3250 c0 -5 7 -10 16 -10 8 0 12 5 9 10 -3 6 -10 10 -16 10 -5
0 -9 -4 -9 -10z"/>
<path d="M4420 3142 c0 -5 7 -9 15 -9 8 0 12 4 9 9 -3 4 -9 8 -15 8 -5 0 -9
-4 -9 -8z"/>
<path d="M4407 3093 c-8 -8 -9 -43 -1 -43 13 0 35 31 31 43 -4 8 -6 7 -6 -3
-1 -11 -3 -12 -9 -2 -5 7 -11 9 -15 5z"/>
<path d="M4600 3060 c0 -11 7 -20 15 -20 8 0 15 9 15 20 0 11 -7 20 -15 20 -8
0 -15 -9 -15 -20z"/>
<path d="M4794 3066 c-8 -21 3 -36 27 -36 15 0 20 6 17 22 -4 27 -35 37 -44
14z"/>
<path d="M4772 2903 c-28 -5 -40 -32 -21 -44 25 -16 37 -10 41 21 3 17 4 29 4
29 -1 -1 -11 -4 -24 -6z"/>
<path d="M4622 2823 c-14 -25 3 -65 25 -61 25 5 25 71 1 76 -9 2 -21 -5 -26
-15z"/>
<path d="M4985 2670 c-3 -6 1 -7 9 -4 18 7 21 14 7 14 -6 0 -13 -4 -16 -10z"/>
<path d="M4931 2578 c-1 -9 -6 -18 -12 -20 -7 -2 -10 -11 -7 -18 3 -11 8 -9
17 8 7 13 10 28 7 35 -2 7 -5 5 -5 -5z"/>
<path d="M4867 2472 c-28 -62 -46 -152 -29 -152 5 0 12 20 15 45 4 24 16 70
27 101 11 32 18 59 17 61 -2 1 -15 -23 -30 -55z"/>
<path d="M2489 2673 c-13 -16 -12 -17 4 -4 16 13 21 21 13 21 -2 0 -10 -8 -17
-17z"/>
<path d="M2690 2600 c-9 -6 -10 -10 -3 -10 6 0 15 5 18 10 8 12 4 12 -15 0z"/>
<path d="M4474 2395 c-8 -19 1 -31 26 -38 11 -3 18 -1 14 4 -3 5 -1 9 4 9 6 0
8 9 5 20 -6 23 -41 27 -49 5z"/>
<path d="M5115 2370 c-3 -6 1 -7 9 -4 18 7 21 14 7 14 -6 0 -13 -4 -16 -10z"/>
</g>
</svg>
